<svg id="图层_1" data-name="图层 1" xmlns="http://www.w3.org/2000/svg" viewBox="0 0 186.52 110.87"><defs><style>.cls-1{fill:#f0d4d3;}.cls-2{fill:#ced8e4;}.cls-3{fill:#e1aaa7;}.cls-4{fill:#9db1c9;}.cls-5{fill:#d27f7a;}.cls-6{fill:#6d8baf;}.cls-7{fill:#c3554e;}.cls-24,.cls-8{fill:#0b3d79;}.cls-8{opacity:0.8;}.cls-9{fill:#e9cdde;}.cls-10,.cls-11,.cls-12,.cls-13,.cls-14,.cls-15,.cls-16,.cls-9{stroke:#201512;stroke-width:0.35px;}.cls-10,.cls-11,.cls-12,.cls-13,.cls-14,.cls-15,.cls-16,.cls-17,.cls-18,.cls-20,.cls-9{stroke-miterlimit:10;}.cls-10{fill:#c86669;}.cls-11{fill:#ddb668;}.cls-12{fill:#c6521e;}.cls-13{fill:#80b8bb;}.cls-14{fill:#1a7882;}.cls-15{fill:#9fbc67;}.cls-16{fill:#2c7c3a;}.cls-17,.cls-18,.cls-27{fill:none;}.cls-17,.cls-18,.cls-20{stroke:#090104;}.cls-17,.cls-18{stroke-width:0.57px;}.cls-18{stroke-dasharray:1.11 1.11;}.cls-19,.cls-21{fill:#090104;}.cls-20{fill:#fff;stroke-width:0.75px;}.cls-21{font-size:9.61px;}.cls-21,.cls-22,.cls-24,.cls-25,.cls-26{font-family:Arial-BoldMT, Arial;font-weight:700;}.cls-22,.cls-24,.cls-25{font-size:7px;}.cls-22{fill:#b42a22;}.cls-23{letter-spacing:-0.04em;}.cls-25,.cls-26{fill:#221613;}.cls-26{font-size:12px;}</style></defs><title>website_home</title><rect class="cls-1" x="53.45" y="11.05" width="28.28" height="24.85"/><rect class="cls-2" x="53.45" y="74.83" width="28.28" height="24.85"/><rect class="cls-3" x="81.67" y="11.05" width="28.28" height="24.85"/><rect class="cls-4" x="81.67" y="74.83" width="28.28" height="24.85"/><rect class="cls-5" x="109.89" y="11.05" width="28.28" height="24.85"/><rect class="cls-6" x="109.89" y="74.83" width="28.28" height="24.85"/><rect class="cls-7" x="138.11" y="11.05" width="28.28" height="24.85"/><rect class="cls-8" x="138.11" y="74.83" width="28.28" height="24.85"/><path class="cls-9" d="M151.51,15.41a6.27,6.27,0,0,1-.67,1,17.36,17.36,0,0,1-7.05,5.39A40.07,40.07,0,0,1,151.57,26a17.59,17.59,0,0,1,4.31,4.38,23.85,23.85,0,0,1,3.76-9.19,22.52,22.52,0,0,1-8.18-5.76"/><ellipse class="cls-10" cx="152.69" cy="21.95" rx="1.27" ry="1.47"/><path class="cls-11" d="M66.91,15.34a5.43,5.43,0,0,1-.67,1,17.18,17.18,0,0,1-7,5.38A40.62,40.62,0,0,1,67,25.91a17.84,17.84,0,0,1,4.32,4.39A23.94,23.94,0,0,1,75,21.1a22.45,22.45,0,0,1-8.17-5.76"/><ellipse class="cls-12" cx="68.18" cy="21.95" rx="1.27" ry="1.47"/><path class="cls-13" d="M95.61,15.41a6.27,6.27,0,0,1-.67,1,17.32,17.32,0,0,1-7.06,5.39A39.78,39.78,0,0,1,95.66,26,17.46,17.46,0,0,1,100,30.36a23.84,23.84,0,0,1,3.75-9.19,22.57,22.57,0,0,1-8.17-5.76"/><ellipse class="cls-14" cx="96.78" cy="21.95" rx="1.27" ry="1.47"/><path class="cls-15" d="M123.68,15.41a6.27,6.27,0,0,1-.67,1A17.36,17.36,0,0,1,116,21.83,40.07,40.07,0,0,1,123.74,26a17.63,17.63,0,0,1,4.32,4.38,23.84,23.84,0,0,1,3.75-9.19,22.61,22.61,0,0,1-8.18-5.76"/><ellipse class="cls-16" cx="124.86" cy="21.95" rx="1.27" ry="1.47"/><path class="cls-9" d="M151.35,79.07a6,6,0,0,1-.67,1,17.34,17.34,0,0,1-7.05,5.38,40.07,40.07,0,0,1,7.78,4.15A17.84,17.84,0,0,1,155.73,94a23.94,23.94,0,0,1,3.75-9.2,22.37,22.37,0,0,1-8.17-5.76"/><ellipse class="cls-10" cx="152.53" cy="85.62" rx="1.27" ry="1.47"/><path class="cls-11" d="M66.76,79a5.87,5.87,0,0,1-.67,1A17.27,17.27,0,0,1,59,85.43a40.07,40.07,0,0,1,7.78,4.15A17.63,17.63,0,0,1,71.13,94a23.84,23.84,0,0,1,3.76-9.2A22.52,22.52,0,0,1,66.71,79"/><ellipse class="cls-12" cx="68.02" cy="85.62" rx="1.27" ry="1.47"/><path class="cls-13" d="M95.45,79.07a6,6,0,0,1-.67,1,17.34,17.34,0,0,1-7,5.38,40.07,40.07,0,0,1,7.78,4.15A17.84,17.84,0,0,1,99.83,94a23.94,23.94,0,0,1,3.75-9.2,22.49,22.49,0,0,1-8.18-5.76"/><ellipse class="cls-14" cx="96.63" cy="85.62" rx="1.27" ry="1.47"/><path class="cls-15" d="M123.53,79.07a6,6,0,0,1-.68,1,17.27,17.27,0,0,1-7,5.38,40.07,40.07,0,0,1,7.78,4.15A17.84,17.84,0,0,1,127.9,94a23.94,23.94,0,0,1,3.75-9.2,22.45,22.45,0,0,1-8.17-5.76"/><ellipse class="cls-16" cx="124.7" cy="85.62" rx="1.27" ry="1.47"/><line class="cls-17" x1="68.36" y1="71.75" x2="68.36" y2="71.18"/><line class="cls-18" x1="68.36" y1="70.07" x2="68.36" y2="39.58"/><line class="cls-17" x1="68.36" y1="39.03" x2="68.36" y2="38.46"/><path class="cls-19" d="M68.36,74.31a13,13,0,0,1,2-3.63l-2,.73-2-.73A13,13,0,0,1,68.36,74.31Z"/><path class="cls-19" d="M68.36,35.89a12.9,12.9,0,0,0,2,3.64l-2-.73-2,.73A12.9,12.9,0,0,0,68.36,35.89Z"/><line class="cls-17" x1="96.63" y1="71.75" x2="96.63" y2="71.18"/><line class="cls-18" x1="96.63" y1="70.07" x2="96.63" y2="39.58"/><line class="cls-17" x1="96.63" y1="39.03" x2="96.63" y2="38.46"/><path class="cls-19" d="M96.63,74.31a13,13,0,0,1,2-3.63l-2,.73-2-.73A13,13,0,0,1,96.63,74.31Z"/><path class="cls-19" d="M96.63,35.89a12.9,12.9,0,0,0,2,3.64l-2-.73-2,.73A12.9,12.9,0,0,0,96.63,35.89Z"/><line class="cls-17" x1="124.86" y1="71.97" x2="124.86" y2="71.4"/><line class="cls-18" x1="124.86" y1="70.29" x2="124.86" y2="39.8"/><line class="cls-17" x1="124.86" y1="39.24" x2="124.86" y2="38.68"/><path class="cls-19" d="M124.86,74.53a12.85,12.85,0,0,1,2-3.63l-2,.73-2-.73A12.85,12.85,0,0,1,124.86,74.53Z"/><path class="cls-19" d="M124.86,36.11a12.9,12.9,0,0,0,2,3.64l-2-.74-2,.74A12.9,12.9,0,0,0,124.86,36.11Z"/><line class="cls-17" x1="152.53" y1="71.97" x2="152.53" y2="71.4"/><line class="cls-18" x1="152.53" y1="70.29" x2="152.53" y2="39.8"/><line class="cls-17" x1="152.53" y1="39.24" x2="152.53" y2="38.68"/><path class="cls-19" d="M152.53,74.53a12.85,12.85,0,0,1,2-3.63l-2,.73-2-.73A12.85,12.85,0,0,1,152.53,74.53Z"/><path class="cls-19" d="M152.53,36.11a12.9,12.9,0,0,0,2,3.64l-2-.74-2,.74A12.9,12.9,0,0,0,152.53,36.11Z"/><rect class="cls-20" x="88" y="48.36" width="44.88" height="14.33" rx="2.88"/><text class="cls-21" transform="translate(102.13 59.08) scale(0.97 1)">PCorr</text><text class="cls-22" transform="translate(3.34 25.48) scale(0.97 1)">Perturbation<tspan class="cls-23" x="41.61" y="0" xml:space="preserve"> A</tspan></text><text class="cls-24" transform="translate(3.34 89.2) scale(0.97 1)">Perturbation B</text><text class="cls-25" transform="translate(54.52 34.23) scale(0.97 1)">20%</text><text class="cls-25" transform="translate(111.35 34.23) scale(0.97 1)">60%</text><text class="cls-25" transform="translate(138.84 34.23) scale(0.97 1)">80%</text><text class="cls-25" transform="translate(83 34.22) scale(0.97 1)">40%</text><text class="cls-25" transform="translate(54.52 98.2) scale(0.97 1)">20%</text><text class="cls-25" transform="translate(111.35 98.2) scale(0.97 1)">60%</text><text class="cls-25" transform="translate(138.84 98.2) scale(0.97 1)">80%</text><text class="cls-25" transform="translate(83 98.19) scale(0.97 1)">40%</text><text class="cls-25" transform="translate(123.68 107.16) scale(1.03 1)">Lethality (%)</text><text class="cls-25" transform="translate(53.35 8.09) scale(1.03 1)">Cancer cell lines</text><text class="cls-26" transform="translate(173.83 23.7) scale(1.03 1)">...</text><text class="cls-26" transform="translate(173.83 88.17) scale(1.03 1)">...</text><path class="cls-19" d="M93.92,59.29V57.78H91.28l1.45-2.26H92l2.64-3.77,1.13,1.62,1.14-1.62,2.63,3.77h-.69l1.45,2.26H97.69v1.51H96.18V57.78h-.75v1.51ZM97.59,57H99l-1.46-2.26h.63l-1.18-1.69-.67,1,1,1.5h-.69Zm-4.93,0h4l-1.46-2.26h.63l-1.19-1.69-1.18,1.69h.63Zm0,0h0Zm4.93,0h0Zm0,0"/><rect class="cls-27" x="91.28" y="51.74" width="9.06" height="7.55"/></svg>